<svg width="800" height="480" viewBox="0 0 800 480" fill="none" xmlns="http://www.w3.org/2000/svg">
  <rect width="800" height="480" rx="32" fill="#F5F5F3"/>
  <rect x="48" y="64" width="704" height="352" rx="24" fill="url(#paint0_linear)"/>
  <circle cx="196" cy="240" r="118" fill="url(#paint1_radial)" opacity="0.9"/>
  <circle cx="404" cy="206" r="92" fill="url(#paint2_radial)" opacity="0.7"/>
  <circle cx="572" cy="268" r="124" fill="url(#paint3_radial)" opacity="0.8"/>
  <path d="M224 320h352" stroke="rgba(18,18,18,0.08)" stroke-width="6" stroke-linecap="round"/>
  <path d="M224 352h208" stroke="rgba(18,18,18,0.12)" stroke-width="6" stroke-linecap="round"/>
  <rect x="264" y="132" width="272" height="30" rx="15" fill="#FFFFFF" fill-opacity="0.78"/>
  <rect x="312" y="136" width="176" height="22" rx="11" fill="#121212" fill-opacity="0.08"/>
  <path d="M488 256c0 49.705-40.295 90-90 90s-90-40.295-90-90 40.295-90 90-90 90 40.295 90 90Z" stroke="rgba(18,18,18,0.24)" stroke-width="8" opacity="0.5"/>
  <defs>
    <linearGradient id="paint0_linear" x1="48" y1="64" x2="647" y2="382" gradientUnits="userSpaceOnUse">
      <stop stop-color="#FFFFFF"/>
      <stop offset="1" stop-color="#DCE4FF"/>
    </linearGradient>
    <radialGradient id="paint1_radial" cx="0" cy="0" r="1" gradientUnits="userSpaceOnUse" gradientTransform="translate(196 240) rotate(45) scale(142 146)">
      <stop stop-color="#0F62FE" stop-opacity="0.62"/>
      <stop offset="1" stop-color="#C7D2FF" stop-opacity="0"/>
    </radialGradient>
    <radialGradient id="paint2_radial" cx="0" cy="0" r="1" gradientUnits="userSpaceOnUse" gradientTransform="translate(404 206) rotate(45) scale(120 122)">
      <stop stop-color="#1B1F24" stop-opacity="0.24"/>
      <stop offset="1" stop-color="#FFFFFF" stop-opacity="0"/>
    </radialGradient>
    <radialGradient id="paint3_radial" cx="0" cy="0" r="1" gradientUnits="userSpaceOnUse" gradientTransform="translate(572 268) rotate(45) scale(148 150)">
      <stop stop-color="#8AA7FF" stop-opacity="0.52"/>
      <stop offset="1" stop-color="#FFFFFF" stop-opacity="0"/>
    </radialGradient>
  </defs>
</svg>
